<svg width="80" height="80" viewBox="0 0 80 80" fill="none" xmlns="http://www.w3.org/2000/svg">
<rect width="80" height="80" fill="#FF9D00"/>
<path d="M69.3222 58.7276C69.3101 59.3676 69.8192 59.8963 70.4593 59.9084C71.0994 59.9205 71.6281 59.4114 71.6402 58.7713L70.4812 58.7494L69.3222 58.7276ZM8.6792 57.5903C8.039 57.5903 7.52002 58.1092 7.52002 58.7494C7.52002 59.3896 8.039 59.9086 8.6792 59.9086V58.7494V57.5903ZM68.5796 36.5594L69.2422 37.5105L68.5796 36.5594ZM9.63 58.7494V59.9086H10.0545L10.3787 59.6344L9.63 58.7494ZM68.4516 40.3148C69.0624 40.1229 69.402 39.4722 69.2101 38.8615C69.0182 38.2507 68.3675 37.9111 67.7568 38.103L68.1042 39.2089L68.4516 40.3148ZM63.6355 41.9848C63.5223 42.6149 63.9414 43.2175 64.5715 43.3306C65.2017 43.4438 65.8042 43.0247 65.9173 42.3945L64.7764 42.1897L63.6355 41.9848ZM62.4163 47.9855C63.0564 47.9761 63.5678 47.4496 63.5585 46.8095C63.5491 46.1694 63.0226 45.658 62.3825 45.6673L62.3994 46.8264L62.4163 47.9855ZM59.547 51.4631L59.6961 52.6127L60.603 52.4951L60.6997 51.5857L59.547 51.4631ZM48.3964 54.5073C47.8827 54.8894 47.776 55.6155 48.1581 56.1293C48.5401 56.643 49.2663 56.7497 49.78 56.3676L49.0882 55.4375L48.3964 54.5073ZM28.3951 55.2499C29.0232 55.1259 29.4318 54.5163 29.3078 53.8882C29.1838 53.2601 28.5741 52.8515 27.9461 52.9755L28.1706 54.1127L28.3951 55.2499ZM20.2681 56.5595C19.7903 56.9856 19.7484 57.7184 20.1744 58.1962C20.6005 58.674 21.3333 58.7159 21.8111 58.2898L21.0396 57.4247L20.2681 56.5595ZM40.0556 33.5786V32.4194H38.8964V33.5786H40.0556ZM59.0716 33.5786L60.2301 33.539L60.1918 32.4194H59.0716V33.5786ZM45.285 36.5594V35.4002C44.6448 35.4002 44.1258 35.9192 44.1258 36.5594H45.285ZM48.6128 36.5594H49.772C49.772 35.9192 49.253 35.4002 48.6128 35.4002V36.5594ZM48.6128 40.5337V41.6929C49.253 41.6929 49.772 41.1739 49.772 40.5337H48.6128ZM45.285 40.5337H44.1258C44.1258 41.1739 44.6448 41.6929 45.285 41.6929V40.5337ZM10.5808 46.4952V45.336H9.42162V46.4952H10.5808ZM16.2856 38.8777L16.3581 37.7208L15.1264 37.6436V38.8777H16.2856ZM39.5802 47.82L40.5219 48.4959L39.5802 47.82ZM31.4984 41.8585V40.6993H30.6828L30.4073 41.4669L31.4984 41.8585ZM34.3508 41.8585H35.51V40.6993H34.3508V41.8585ZM34.3508 44.508V45.6672H35.51V44.508H34.3508ZM30.5476 44.508L29.4565 44.1165L28.9001 45.6672H30.5476V44.508ZM24.3674 29.9354H23.2082V31.0946H24.3674V29.9354ZM24.3674 26.9547L24.3842 25.7956L23.2082 25.7786V26.9547H24.3674ZM47.1866 27.2859H48.3458V26.1434L47.2034 26.1268L47.1866 27.2859ZM47.1866 29.9354V31.0946H48.3458V29.9354H47.1866ZM31.4984 32.2538V31.0946H30.3392V32.2538H31.4984ZM34.8262 32.2538H35.9854V31.0946H34.8262V32.2538ZM34.8262 35.2346V36.3938H35.9854V35.2346H34.8262ZM31.4984 35.2346H30.3392V36.3938H31.4984V35.2346ZM44.3342 22.9803L44.4237 21.8246L43.175 21.728V22.9803H44.3342ZM66.2026 37.4007L66.5501 38.5066L66.2026 37.4007ZM65.7272 24.6363L66.8856 24.5932L66.8471 23.5604L65.8167 23.4806L65.7272 24.6363ZM59.547 20.9932V19.834H58.3878V20.9932H59.547ZM64.301 20.9932H65.4602V19.834H64.301V20.9932ZM63.1418 24.5259C63.1418 25.1661 63.6608 25.6851 64.301 25.6851C64.9412 25.6851 65.4602 25.1661 65.4602 24.5259H64.301H63.1418ZM55.7438 27.2859V26.1267H54.5846V27.2859H55.7438ZM60.0224 27.2859H61.1816V26.1267H60.0224V27.2859ZM60.0224 30.2666V31.4258H61.1816V30.2666H60.0224ZM55.7438 30.2666H54.5846V31.4258H55.7438V30.2666ZM26.0512 49.8215L25.9867 50.9789L26.0512 49.8215ZM25.5395 49.845L25.7164 50.9906L25.5395 49.845ZM36.2266 50.3886L36.1621 51.546L36.2266 50.3886ZM38.5266 49.2881L39.4683 49.964L38.5266 49.2881ZM43.5429 45.0848L43.6978 46.2336L43.5429 45.0848ZM42.3824 45.5366L43.045 46.4877L42.3824 45.5366ZM56.7769 43.3004L56.622 42.1516L56.7769 43.3004ZM63.0356 38.3601L62.7079 37.2482L63.0356 38.3601ZM70.9164 35.7059L69.7574 35.684L70.9164 35.7059ZM69.6855 35.2849L68.7692 34.5749L69.6855 35.2849ZM70.4812 58.7494L71.6402 58.7713L72.0754 35.7278L70.9164 35.7059L69.7574 35.684L69.3222 58.7276L70.4812 58.7494ZM56.7769 43.3004L56.622 42.1516L43.388 43.936L43.5429 45.0848L43.6978 46.2336L56.9318 44.4492L56.7769 43.3004ZM36.2266 50.3886L36.2911 49.2312L26.1157 48.6641L26.0512 49.8215L25.9867 50.9789L36.1621 51.546L36.2266 50.3886ZM69.6855 35.2849L68.7692 34.5749C68.546 34.8629 68.3323 35.1303 68.1551 35.3376C68.0662 35.4416 67.994 35.5219 67.9393 35.5784C67.8717 35.6482 67.8703 35.6408 67.917 35.6082L68.5796 36.5594L69.2422 37.5105C69.4856 37.341 69.7428 37.0484 69.9177 36.8437C70.1297 36.5956 70.3692 36.2952 70.6018 35.9949L69.6855 35.2849ZM42.3824 45.5366L41.7197 44.5855L39.393 46.2065L40.0556 47.1576L40.7182 48.1087L43.045 46.4877L42.3824 45.5366ZM25.5395 49.845L25.3626 48.6994C24.6717 48.8061 22.7065 49.1329 20.7284 49.6841L21.0396 50.8008L21.3508 51.9174C23.1986 51.4025 25.0592 51.0921 25.7164 50.9906L25.5395 49.845ZM21.0396 50.8008L20.7284 49.6841C19.4132 50.0506 18.1335 50.6794 17.2069 51.1958C16.7378 51.4572 16.3467 51.697 16.0714 51.8723C15.9335 51.9601 15.8242 52.0322 15.748 52.0831C15.7098 52.1086 15.68 52.1289 15.659 52.1432C15.6485 52.1504 15.6402 52.1561 15.6341 52.1603C15.6311 52.1623 15.6287 52.164 15.6268 52.1653C15.6259 52.166 15.6251 52.1665 15.6245 52.167C15.6241 52.1672 15.6239 52.1674 15.6236 52.1676C15.6235 52.1676 15.6233 52.1678 15.6233 52.1678C15.6231 52.1679 15.623 52.168 16.2856 53.1191C16.9482 54.0703 16.9481 54.0703 16.948 54.0704C16.948 54.0704 16.9479 54.0705 16.9478 54.0705C16.9477 54.0706 16.9476 54.0707 16.9476 54.0707C16.9475 54.0707 16.9476 54.0707 16.9478 54.0705C16.9483 54.0702 16.9493 54.0695 16.9508 54.0684C16.954 54.0663 16.9593 54.0626 16.9668 54.0575C16.9817 54.0473 17.0053 54.0313 17.0368 54.0102C17.0999 53.968 17.1948 53.9055 17.3169 53.8277C17.5615 53.6719 17.9132 53.4562 18.3355 53.2209C19.1917 52.7437 20.289 52.2133 21.3508 51.9174L21.0396 50.8008ZM9.63 58.7494V57.5903H8.6792V58.7494V59.9086H9.63V58.7494ZM68.1042 39.2089L67.7568 38.103C66.4988 38.4982 65.5228 38.9268 64.8315 39.573C64.0847 40.2712 63.7941 41.1014 63.6355 41.9848L64.7764 42.1897L65.9173 42.3945C66.0308 41.7625 66.1785 41.4874 66.4147 41.2666C66.7065 40.9938 67.2583 40.6897 68.4516 40.3148L68.1042 39.2089ZM62.3994 46.8264L62.3825 45.6673C61.199 45.6846 60.2233 46.2473 59.55 47.3013C58.9281 48.2749 58.5749 49.6422 58.3943 51.3406L59.547 51.4631L60.6997 51.5857C60.8672 50.01 61.1711 49.0701 61.5037 48.5494C61.7849 48.1093 62.0614 47.9906 62.4163 47.9855L62.3994 46.8264ZM59.547 51.4631L59.3979 50.3136C56.8229 50.6476 54.9018 51.0639 53.195 51.7269C51.4792 52.3935 50.0366 53.2875 48.3964 54.5073L49.0882 55.4375L49.78 56.3676C51.3278 55.2165 52.5836 54.4516 54.0346 53.888C55.4946 53.3208 57.209 52.9353 59.6961 52.6127L59.547 51.4631ZM28.1706 54.1127L27.9461 52.9755C26.2546 53.3094 24.9226 53.6642 23.7096 54.2191C22.4838 54.7798 21.4345 55.5194 20.2681 56.5595L21.0396 57.4247L21.8111 58.2898C22.8611 57.3535 23.7181 56.7646 24.6741 56.3273C25.643 55.8841 26.7683 55.5711 28.3951 55.2499L28.1706 54.1127ZM61.9248 39.0095L61.1154 38.1796L58.5339 40.6974L59.3433 41.5273L60.1526 42.3571L62.7341 39.8393L61.9248 39.0095ZM59.3433 41.5273L58.5339 40.6974L57.4634 41.7415L58.2728 42.5713L59.0822 43.4012L60.1526 42.3571L59.3433 41.5273ZM59.0716 33.5786L57.9131 33.6182L58.1847 41.5669L59.3433 41.5273L60.5018 41.4877L60.2301 33.539L59.0716 33.5786ZM45.285 36.5594V37.7185H48.6128V36.5594V35.4002H45.285V36.5594ZM48.6128 36.5594H47.4536V40.5337H48.6128H49.772V36.5594H48.6128ZM48.6128 40.5337V39.3745H45.285V40.5337V41.6929H48.6128V40.5337ZM45.285 40.5337H46.4442V36.5594H45.285H44.1258V40.5337H45.285ZM10.5808 46.4952V47.6544H16.2856V46.4952V45.336H10.5808V46.4952ZM16.2856 46.4952H15.1264V53.1191H16.2856H17.4448V46.4952H16.2856ZM16.2856 53.1191L15.5369 52.2341L9.83214 57.0601L10.5808 57.9451L11.3295 58.8301L17.0343 54.0041L16.2856 53.1191ZM10.5808 57.9451L9.83214 57.0601L8.88134 57.8645L9.63 58.7494L10.3787 59.6344L11.3295 58.8301L10.5808 57.9451ZM10.5808 46.4952H9.42162V57.9451H10.5808H11.74V46.4952H10.5808ZM40.0556 33.5786H38.8964V40.3681H40.0556H41.2148V33.5786H40.0556ZM40.0556 40.3681H38.8964V47.1576H40.0556H41.2148V40.3681H40.0556ZM16.2856 38.8777H15.1264V44.1768H16.2856H17.4448V38.8777H16.2856ZM16.2856 44.1768H15.1264V46.4952H16.2856H17.4448V44.1768H16.2856ZM40.0556 47.1576L39.1139 46.4817L38.6385 47.1441L39.5802 47.82L40.5219 48.4959L40.9973 47.8335L40.0556 47.1576ZM39.5802 47.82L38.6385 47.1441L37.5848 48.6122L38.5266 49.2881L39.4683 49.964L40.5219 48.4959L39.5802 47.82ZM16.2856 44.1768L16.1065 45.3221L39.4011 48.9653L39.5802 47.82L39.7593 46.6747L16.4647 43.0316L16.2856 44.1768ZM31.4984 41.8585V43.0177H34.3508V41.8585V40.6993H31.4984V41.8585ZM34.3508 41.8585H33.1916V44.508H34.3508H35.51V41.8585H34.3508ZM34.3508 44.508V43.3489H30.5476V44.508V45.6672H34.3508V44.508ZM30.5476 44.508L31.6387 44.8996L32.5895 42.25L31.4984 41.8585L30.4073 41.4669L29.4565 44.1165L30.5476 44.508ZM16.2856 38.8777L16.2131 40.0346L26.6719 40.6904L26.7444 39.5335L26.8169 38.3766L16.3581 37.7208L16.2856 38.8777ZM26.7444 39.5335L26.6719 40.6904L39.9831 41.525L40.0556 40.3681L40.1281 39.2112L26.8169 38.3766L26.7444 39.5335ZM26.7444 39.5335H27.9036V29.9354H26.7444H25.5852V39.5335H26.7444ZM26.7444 29.9354V28.7763H24.3674V29.9354V31.0946H26.7444V29.9354ZM24.3674 29.9354H25.5266V26.9547H24.3674H23.2082V29.9354H24.3674ZM47.1866 27.2859H46.0274V29.9354H47.1866H48.3458V27.2859H47.1866ZM47.1866 29.9354V28.7763H45.7604V29.9354V31.0946H47.1866V29.9354ZM45.7604 29.9354V28.7763H26.7444V29.9354V31.0946H45.7604V29.9354ZM40.0556 33.5786V34.7378H45.7604V33.5786V32.4194H40.0556V33.5786ZM45.7604 33.5786V34.7378H59.0716V33.5786V32.4194H45.7604V33.5786ZM45.7604 29.9354H44.6012V33.5786H45.7604H46.9196V29.9354H45.7604ZM31.4984 32.2538V33.413H34.8262V32.2538V31.0946H31.4984V32.2538ZM34.8262 32.2538H33.667V35.2346H34.8262H35.9854V32.2538H34.8262ZM34.8262 35.2346V34.0754H31.4984V35.2346V36.3938H34.8262V35.2346ZM31.4984 35.2346H32.6576V32.2538H31.4984H30.3392V35.2346H31.4984ZM24.3674 26.9547L24.3506 28.1137L44.3174 28.4035L44.3342 27.2445L44.351 26.0854L24.3842 25.7956L24.3674 26.9547ZM44.3342 27.2445L44.3174 28.4035L47.1698 28.4449L47.1866 27.2859L47.2034 26.1268L44.351 26.0854L44.3342 27.2445ZM44.3342 22.9803H43.175V27.2445H44.3342H45.4934V22.9803H44.3342ZM68.5796 36.5594L67.917 35.6082C67.9952 35.5537 68.0193 35.5555 67.8599 35.6195C67.7428 35.6664 67.5796 35.7266 67.3743 35.7981C66.9658 35.9404 66.4323 36.1135 65.8551 36.2948L66.2026 37.4007L66.5501 38.5066C67.1351 38.3228 67.6951 38.1413 68.1371 37.9874C68.3571 37.9107 68.5583 37.8372 68.7231 37.7711C68.8456 37.722 69.069 37.6311 69.2422 37.5105L68.5796 36.5594ZM66.2026 37.4007L65.8551 36.2948C64.7206 36.6513 63.4508 37.0293 62.7079 37.2482L63.0356 38.3601L63.3632 39.4721C64.11 39.252 65.3956 38.8694 66.5501 38.5066L66.2026 37.4007ZM66.2026 37.4007L67.361 37.3576L66.8856 24.5932L65.7272 24.6363L64.5688 24.6795L65.0442 37.4439L66.2026 37.4007ZM59.547 20.9932V22.1523H64.301V20.9932V19.834H59.547V20.9932ZM64.301 20.9932H63.1418V24.5259H64.301H65.4602V20.9932H64.301ZM65.7272 24.6363L65.8167 23.4806L59.6365 23.0022L59.547 24.1579L59.4575 25.3136L65.6377 25.792L65.7272 24.6363ZM59.547 24.1579L59.6365 23.0022L44.4237 21.8246L44.3342 22.9803L44.2447 24.1361L59.4575 25.3136L59.547 24.1579ZM59.547 20.9932H58.3878V24.1579H59.547H60.7062V20.9932H59.547ZM55.7438 27.2859V28.4451H60.0224V27.2859V26.1267H55.7438V27.2859ZM60.0224 27.2859H58.8632V30.2666H60.0224H61.1816V27.2859H60.0224ZM60.0224 30.2666V29.1075H55.7438V30.2666V31.4258H60.0224V30.2666ZM55.7438 30.2666H56.903V27.2859H55.7438H54.5846V30.2666H55.7438ZM26.0512 49.8215L26.1157 48.6641C25.8704 48.6505 25.6184 48.6599 25.3626 48.6994L25.5395 49.845L25.7164 50.9906C25.7997 50.9778 25.8893 50.9735 25.9867 50.9789L26.0512 49.8215ZM36.2266 50.3886L36.1621 51.546C37.4621 51.6185 38.7091 51.0218 39.4683 49.964L38.5266 49.2881L37.5848 48.6122C37.2877 49.0261 36.7998 49.2596 36.2911 49.2312L36.2266 50.3886ZM43.5429 45.0848L43.388 43.936C42.7882 44.0169 42.2163 44.2395 41.7197 44.5855L42.3824 45.5366L43.045 46.4877C43.2393 46.3524 43.4631 46.2653 43.6978 46.2336L43.5429 45.0848ZM56.7769 43.3004L56.9318 44.4492C57.7425 44.3398 58.4965 43.9724 59.0822 43.4012L58.2728 42.5713L57.4634 41.7415C57.2343 41.965 56.9392 42.1088 56.622 42.1516L56.7769 43.3004ZM61.9248 39.0095L62.7341 39.8393C62.9093 39.6685 63.1251 39.5422 63.3632 39.4721L63.0356 38.3601L62.7079 37.2482C62.1109 37.4241 61.5635 37.7426 61.1154 38.1796L61.9248 39.0095ZM70.9164 35.7059L72.0754 35.7278C72.1098 33.9069 69.8168 33.2228 68.7692 34.5749L69.6855 35.2849L70.6018 35.9949C70.4575 36.1811 70.2252 36.2052 70.0817 36.1564C70.0091 36.1318 69.9286 36.0821 69.8626 35.9954C69.7907 35.9008 69.7555 35.7863 69.7574 35.684L70.9164 35.7059Z" fill="black"/>
</svg>
